<svg id="Layer_1" data-name="Layer 1" xmlns="http://www.w3.org/2000/svg" width="190mm" height="80mm" viewBox="0 0 538.5827 226.7717"><defs><style>.cls-1{fill:#f6c75e;}.cls-2{fill:#eb9661;}.cls-3{fill:#5e9cc3;}.cls-4{fill:#155177;}</style></defs><path class="cls-1" d="M22.2953,142.2717v26.54c0,14.6577,38.788,26.54,86.6355,26.54v-26.54C61.0833,168.8118,22.2953,156.9294,22.2953,142.2717Z"/><path class="cls-2" d="M22.2953,105.2468v26.54c0,14.6577,38.788,26.54,86.6355,26.54v-26.54C61.0833,131.787,22.2953,119.9045,22.2953,105.2468Z"/><path class="cls-3" d="M22.2953,68.2219v26.54c0,14.6577,38.788,26.54,86.6355,26.54v-26.54C61.0833,94.7621,22.2953,82.88,22.2953,68.2219Z"/><path class="cls-4" d="M22.2953,57.5974c0,14.6578,38.788,26.54,86.6355,26.54v-53.08C61.0833,31.0573,22.2953,42.94,22.2953,57.5974Z"/><path class="cls-4" d="M138.3958,58.2145a12.77,12.77,0,0,0,9.3823-3.9787,12.9446,12.9446,0,0,0,3.95-9.4437,13.14,13.14,0,0,0-3.95-9.61,12.7778,12.7778,0,0,0-9.3823-3.9762,12.96,12.96,0,0,0-9.5471,3.9762,13.132,13.132,0,0,0-3.9529,9.61,13.541,13.541,0,0,0,13.5,13.4224Z"/><path class="cls-1" d="M140.37,197.0661a1.4441,1.4441,0,0,0,.5772.581,1.4617,1.4617,0,0,0,.7421.249l7.4058-1.3254a.8124.8124,0,0,0,.7422-.4149,1.5007,1.5007,0,0,0,.2473-.747l-3.0931-25.5756H132.6853Z"/><path class="cls-2" d="M127.367,152.8252a3.2675,3.2675,0,0,1,.5747.83c.1649.3294.3014.6069.4122.8274l1.3848,4.9069h15.9895l-1.7355-14.3506a3.211,3.211,0,0,0-.2473-.996c-.165-.4383-.3041-.77-.4123-.9934l-5.6691-10.8427H116.66v8.415Z"/><path class="cls-3" d="M176.5045,109.1653a1.48,1.48,0,0,0-.4123-.747L157.7188,94.5809H116.66v27.1827h15.5434l-3.6848-7.0478a2.601,2.601,0,0,1,0-1.8233L136.2545,95.33a.7388.7388,0,0,1,.4947-.415.6887.6887,0,0,1,.66.249l7.7356,6.7929a5.0709,5.0709,0,0,0,.8246.6614,3.9692,3.9692,0,0,0,.987.4981l24.6911,12.4264a1.2976,1.2976,0,0,0,1.4817-.4954l3.2932-5.1381A1.1428,1.1428,0,0,0,176.5045,109.1653Z"/><path class="cls-4" d="M149.5861,84.1376l-6.91-18.6348a3.2,3.2,0,0,0-.5772-.7444c-.2758-.2749-.5206-.524-.74-.7445l-15.4739-8.4528a7.2354,7.2354,0,0,0-.99-.2464,2.04,2.04,0,0,0-.9869.083L116.66,58.545V84.1376Z"/><path class="cls-4" d="M219.2722,31.0711v5.0166h-13.11v6.27h11.3623v4.6357H206.1619v11.21h-5.9658V31.0711Z"/><path class="cls-4" d="M236.447,56.95a8.9121,8.9121,0,0,1-5.5478,1.6718,10.1031,10.1031,0,0,1-4.085-.76,8.0465,8.0465,0,0,1-2.9062-2.1289,9.0182,9.0182,0,0,1-1.7676-3.2676,15.7457,15.7457,0,0,1-.665-4.1416A11.8033,11.8033,0,0,1,222.16,44.22a9.8063,9.8063,0,0,1,1.918-3.23,8.7144,8.7144,0,0,1,2.9267-2.1269,8.93,8.93,0,0,1,3.7051-.7608,8.0607,8.0607,0,0,1,4.3506,1.083,8.6179,8.6179,0,0,1,2.7744,2.7559,10.8822,10.8822,0,0,1,1.4434,3.6475,15.6026,15.6026,0,0,1,.3232,3.7617h-14.706a7.8038,7.8038,0,0,0,.3037,2.4511,5.5453,5.5453,0,0,0,1.1025,2.0518,5.4416,5.4416,0,0,0,1.9385,1.4258,6.6856,6.6856,0,0,0,2.7734.5312,5.5945,5.5945,0,0,0,3.3633-.9492,4.5982,4.5982,0,0,0,1.7285-2.8887h3.1924A7.8563,7.8563,0,0,1,236.447,56.95Zm-.7783-12.6163a5.531,5.531,0,0,0-1.1787-1.7666,5.6,5.6,0,0,0-1.748-1.1787,5.5287,5.5287,0,0,0-2.2227-.4365,5.6272,5.6272,0,0,0-2.2607.4365,5.227,5.227,0,0,0-1.73,1.1973,5.7209,5.7209,0,0,0-1.14,1.7666,6.7161,6.7161,0,0,0-.4941,2.1475h11.2861A6.6133,6.6133,0,0,0,235.6687,44.3337Z"/><path class="cls-4" d="M257.2713,58.2039v-2.66h-.0762a4.7491,4.7491,0,0,1-2.5078,2.3555,9.5788,9.5788,0,0,1-3.7618.7226,8.8709,8.8709,0,0,1-3.9716-.8359,8.1432,8.1432,0,0,1-2.8116-2.2422,9.7568,9.7568,0,0,1-1.6914-3.2676,13.4354,13.4354,0,0,1-.57-3.9521,13.8637,13.8637,0,0,1,.5508-3.9522,9.2935,9.2935,0,0,1,1.6729-3.249,8.0738,8.0738,0,0,1,2.8115-2.2041,8.9357,8.9357,0,0,1,3.9336-.8174,9.6537,9.6537,0,0,1,1.6338.1524,8.3452,8.3452,0,0,1,1.748.5127,7.4932,7.4932,0,0,1,1.6533.95,5.2449,5.2449,0,0,1,1.3106,1.4629h.0762V31.0711h3.2294V58.2039Zm-11.6094-6.9727a7.2364,7.2364,0,0,0,1.1015,2.3359,5.3924,5.3924,0,0,0,1.9,1.6348,5.7674,5.7674,0,0,0,2.7168.6074,5.33,5.33,0,0,0,4.6367-2.3369,7.0862,7.0862,0,0,0,1.045-2.375,11.5214,11.5214,0,0,0-.02-5.4912,6.9122,6.9122,0,0,0-1.083-2.375,5.5358,5.5358,0,0,0-1.9189-1.6523,5.9947,5.9947,0,0,0-2.85-.627,5.5494,5.5494,0,0,0-2.7744.6455,5.1391,5.1391,0,0,0-1.8233,1.71,7.4187,7.4187,0,0,0-.9883,2.4316,12.9012,12.9012,0,0,0-.3047,2.8125A10.0342,10.0342,0,0,0,245.6619,51.2312Z"/><path class="cls-4" d="M279.3865,56.95a8.9164,8.9164,0,0,1-5.5479,1.6718,10.1023,10.1023,0,0,1-4.0849-.76,8.0514,8.0514,0,0,1-2.9073-2.1289,9.018,9.018,0,0,1-1.7666-3.2676,15.7123,15.7123,0,0,1-.666-4.1416,11.8243,11.8243,0,0,1,.6846-4.1045,9.8271,9.8271,0,0,1,1.9189-3.23,8.7219,8.7219,0,0,1,2.9258-2.1269,8.9293,8.9293,0,0,1,3.7051-.7608A8.0669,8.0669,0,0,1,278,39.1843a8.6166,8.6166,0,0,1,2.7734,2.7559,10.8839,10.8839,0,0,1,1.4443,3.6475,15.7,15.7,0,0,1,.3233,3.7617H267.8347a7.7516,7.7516,0,0,0,.3037,2.4511,5.5449,5.5449,0,0,0,1.1016,2.0518,5.44,5.44,0,0,0,1.9385,1.4258,6.6931,6.6931,0,0,0,2.7744.5312,5.5934,5.5934,0,0,0,3.3623-.9492,4.5993,4.5993,0,0,0,1.7295-2.8887h3.1914A7.8561,7.8561,0,0,1,279.3865,56.95Zm-.7793-12.6163a5.5122,5.5122,0,0,0-1.1777-1.7666,5.6122,5.6122,0,0,0-1.7481-1.1787,5.5316,5.5316,0,0,0-2.2226-.4365,5.6357,5.6357,0,0,0-2.2618.4365,5.2238,5.2238,0,0,0-1.7285,1.1973,5.7433,5.7433,0,0,0-1.1406,1.7666,6.7153,6.7153,0,0,0-.4932,2.1475h11.2862A6.64,6.64,0,0,0,278.6072,44.3337Z"/><path class="cls-4" d="M288.81,38.5574V42.7h.0762a8.73,8.73,0,0,1,2.8877-3.5342,7.2589,7.2589,0,0,1,4.332-1.0645v3.4209a9.1436,9.1436,0,0,0-3.3066.5313,5.2211,5.2211,0,0,0-2.2041,1.5586A6.4487,6.4487,0,0,0,289.38,46.1a13.4554,13.4554,0,0,0-.38,3.3632v8.74H285.77V38.5574Z"/><path class="cls-4" d="M315.9412,58.1209a4.5123,4.5123,0,0,1-2.3174.5009,2.78,2.78,0,0,1-1.9951-.7031,3.0556,3.0556,0,0,1-.7412-2.2988,7.7342,7.7342,0,0,1-3.0967,2.2988,10.6858,10.6858,0,0,1-6.3457.3984,5.8618,5.8618,0,0,1-2.0713-.9492,4.5492,4.5492,0,0,1-1.3867-1.6914,5.6776,5.6776,0,0,1-.5137-2.5273,5.7691,5.7691,0,0,1,.57-2.7354,4.9727,4.9727,0,0,1,1.501-1.73,6.8956,6.8956,0,0,1,2.1279-1.0068q1.1969-.3412,2.4512-.5693,1.33-.2667,2.5264-.3995a14.0264,14.0264,0,0,0,2.1093-.38,3.5154,3.5154,0,0,0,1.4444-.7227,1.7617,1.7617,0,0,0,.5322-1.3867,3.219,3.219,0,0,0-.3994-1.71,2.73,2.73,0,0,0-1.0264-.9873,4.1676,4.1676,0,0,0-1.4053-.457,10.5986,10.5986,0,0,0-1.539-.1133,6.8258,6.8258,0,0,0-3.42.7793,3.3053,3.3053,0,0,0-1.4825,2.9443h-3.2295a6.9665,6.9665,0,0,1,.76-3.0781,5.7568,5.7568,0,0,1,1.8242-2.0322,7.6339,7.6339,0,0,1,2.6026-1.1211,13.72,13.72,0,0,1,3.1347-.3428,18.35,18.35,0,0,1,2.6416.1905,6.889,6.889,0,0,1,2.375.7773,4.5552,4.5552,0,0,1,1.71,1.6494,5.2677,5.2677,0,0,1,.6455,2.7676V53.572a7.5166,7.5166,0,0,0,.1328,1.669q.1334.53.8936.5312a3.186,3.186,0,0,0,.9873-.19ZM310.698,48.0193a4,4,0,0,1-1.5967.665q-.9873.21-2.07.3418-1.0839.1349-2.1855.3047a8.0141,8.0141,0,0,0-1.9756.5508,3.5955,3.5955,0,0,0-1.4248,1.083,3.028,3.028,0,0,0-.5508,1.919,2.632,2.632,0,0,0,.3223,1.35,2.6931,2.6931,0,0,0,.8359.8925,3.52,3.52,0,0,0,1.1973.4942,6.6305,6.6305,0,0,0,1.4433.1523,7.6579,7.6579,0,0,0,2.7364-.4375,5.7555,5.7555,0,0,0,1.8623-1.1015,4.3366,4.3366,0,0,0,1.0634-1.4444,3.64,3.64,0,0,0,.3428-1.4629Z"/><path class="cls-4" d="M327.3416,38.5574V41.408h-3.9141V53.6062a3.5191,3.5191,0,0,0,.0947.9111.938.938,0,0,0,.3614.5323,1.5879,1.5879,0,0,0,.7412.247,10.7414,10.7414,0,0,0,1.2343.0567h1.4825v2.8506h-2.4707a11.5712,11.5712,0,0,1-2.1465-.1709,3.15,3.15,0,0,1-1.4444-.628,2.6825,2.6825,0,0,1-.8173-1.291,7.49,7.49,0,0,1-.2657-2.2041V41.408h-3.3437V38.5574h3.3437v-5.89h3.2305v5.89Z"/><path class="cls-4" d="M344.8211,56.95a8.9166,8.9166,0,0,1-5.5479,1.6718,10.1073,10.1073,0,0,1-4.0859-.76,8.0554,8.0554,0,0,1-2.9063-2.1289,9.02,9.02,0,0,1-1.7676-3.2676,15.7539,15.7539,0,0,1-.665-4.1416,11.8243,11.8243,0,0,1,.6846-4.1045,9.8254,9.8254,0,0,1,1.9189-3.23,8.7119,8.7119,0,0,1,2.9258-2.1269,8.9289,8.9289,0,0,1,3.7051-.7608,8.0612,8.0612,0,0,1,4.3506,1.083,8.62,8.62,0,0,1,2.7744,2.7559,10.9049,10.9049,0,0,1,1.4443,3.6475,15.6508,15.6508,0,0,1,.3223,3.7617H333.2693a7.7487,7.7487,0,0,0,.3037,2.4511,5.5276,5.5276,0,0,0,1.1016,2.0518,5.44,5.44,0,0,0,1.9384,1.4258,6.6923,6.6923,0,0,0,2.7735.5312A5.5949,5.5949,0,0,0,342.75,54.86a4.594,4.594,0,0,0,1.7285-2.8887h3.1924A7.8561,7.8561,0,0,1,344.8211,56.95Zm-.7793-12.6163a5.5436,5.5436,0,0,0-1.1778-1.7666,5.6106,5.6106,0,0,0-1.748-1.1787,5.5366,5.5366,0,0,0-2.2237-.4365,5.6272,5.6272,0,0,0-2.2607.4365,5.2238,5.2238,0,0,0-1.7285,1.1973,5.7233,5.7233,0,0,0-1.1406,1.7666,6.7126,6.7126,0,0,0-.4932,2.1475h11.2852A6.6133,6.6133,0,0,0,344.0418,44.3337Z"/><path class="cls-4" d="M365.6443,58.2039v-2.66h-.0762a4.7488,4.7488,0,0,1-2.5078,2.3555,9.578,9.578,0,0,1-3.7617.7226,8.8717,8.8717,0,0,1-3.9717-.8359,8.1623,8.1623,0,0,1-2.8115-2.2422,9.7713,9.7713,0,0,1-1.6914-3.2676,13.4321,13.4321,0,0,1-.57-3.9521,13.832,13.832,0,0,1,.5517-3.9522,9.2916,9.2916,0,0,1,1.6719-3.249,8.0757,8.0757,0,0,1,2.8115-2.2041,8.9391,8.9391,0,0,1,3.9336-.8174,9.6527,9.6527,0,0,1,1.6338.1524,8.3286,8.3286,0,0,1,1.7481.5127,7.4728,7.4728,0,0,1,1.6533.95,5.2446,5.2446,0,0,1,1.31,1.4629h.0762V31.0711h3.2305V58.2039Zm-11.6094-6.9727a7.2178,7.2178,0,0,0,1.1026,2.3359,5.3961,5.3961,0,0,0,1.8994,1.6348,5.77,5.77,0,0,0,2.7168.6074,5.33,5.33,0,0,0,4.6367-2.3369,7.0841,7.0841,0,0,0,1.0449-2.375,11.486,11.486,0,0,0-.0195-5.4912,6.933,6.933,0,0,0-1.082-2.375,5.54,5.54,0,0,0-1.92-1.6523,5.9941,5.9941,0,0,0-2.85-.627,5.5431,5.5431,0,0,0-2.7734.6455,5.1327,5.1327,0,0,0-1.8242,1.71,7.4361,7.4361,0,0,0-.9883,2.4316,12.9008,12.9008,0,0,0-.3037,2.8125A10.0737,10.0737,0,0,0,354.0349,51.2312Z"/><path class="cls-4" d="M220.488,65.5711v5.0166H206.1619v5.8134H219.31v4.6368H206.1619v6.6494h14.63v5.0166H200.1961V65.5711Z"/><path class="cls-4" d="M237.8533,92.7039V89.5877h-.0752a6.61,6.61,0,0,1-2.6221,2.6787,7.8526,7.8526,0,0,1-3.7617.8554,8.7934,8.7934,0,0,1-3.23-.5136,5.1378,5.1378,0,0,1-2.09-1.4629,5.4919,5.4919,0,0,1-1.1211-2.2608,12.1317,12.1317,0,0,1-.3233-2.9072v-12.92h3.23V86.3582a3.9025,3.9025,0,0,0,1.0635,2.8877,3.9546,3.9546,0,0,0,2.9258,1.0634,6.57,6.57,0,0,0,2.5654-.456,4.8059,4.8059,0,0,0,1.8047-1.292,5.5469,5.5469,0,0,0,1.083-1.957,7.9633,7.9633,0,0,0,.3613-2.4512V73.0574h3.23V92.7039Z"/><path class="cls-4" d="M248.6834,73.0574V77.2h.0761a8.7394,8.7394,0,0,1,2.8887-3.5342,7.2591,7.2591,0,0,1,4.332-1.0645v3.4209a9.14,9.14,0,0,0-3.3066.5313,5.2155,5.2155,0,0,0-2.2041,1.5586A6.4345,6.4345,0,0,0,249.2537,80.6a13.4086,13.4086,0,0,0-.38,3.3632v8.74h-3.23V73.0574Z"/><path class="cls-4" d="M257.2722,78.8523a9.1534,9.1534,0,0,1,1.8233-3.2676,8.5948,8.5948,0,0,1,3.0019-2.1855,11.0038,11.0038,0,0,1,8.2276,0,8.6511,8.6511,0,0,1,2.9834,2.1855,9.17,9.17,0,0,1,1.8232,3.2676,13.0873,13.0873,0,0,1,.6084,4.0469,12.9061,12.9061,0,0,1-.6084,4.0283,9.1884,9.1884,0,0,1-1.8232,3.249,8.4314,8.4314,0,0,1-2.9834,2.166,11.2476,11.2476,0,0,1-8.2276,0,8.38,8.38,0,0,1-3.0019-2.166,9.1717,9.1717,0,0,1-1.8233-3.249,12.9091,12.9091,0,0,1-.6084-4.0283A13.09,13.09,0,0,1,257.2722,78.8523Zm3.2862,7.2207A6.636,6.636,0,0,0,261.87,88.39a5.6622,5.6622,0,0,0,1.957,1.4248,5.955,5.955,0,0,0,4.75,0,5.6715,5.6715,0,0,0,1.957-1.4248,6.6519,6.6519,0,0,0,1.3116-2.3174,10.8464,10.8464,0,0,0,0-6.3467,6.8835,6.8835,0,0,0-1.3116-2.3369,5.5891,5.5891,0,0,0-1.957-1.4433,5.9539,5.9539,0,0,0-4.75,0,5.58,5.58,0,0,0-1.957,1.4433,6.8666,6.8666,0,0,0-1.3115,2.3369,10.8464,10.8464,0,0,0,0,6.3467Z"/><path class="cls-4" d="M282.8836,73.0574v2.66h.0761a4.8411,4.8411,0,0,1,2.5078-2.375,9.3574,9.3574,0,0,1,3.7618-.7412,8.8726,8.8726,0,0,1,3.9716.836,8.0789,8.0789,0,0,1,2.8116,2.2617,9.9789,9.9789,0,0,1,1.69,3.2861,13.409,13.409,0,0,1,.57,3.9522,13.8584,13.8584,0,0,1-.5508,3.9521,9.3,9.3,0,0,1-1.6719,3.249,7.8951,7.8951,0,0,1-2.8125,2.1856,9.1183,9.1183,0,0,1-3.9326.7978A9.679,9.679,0,0,1,287.69,92.97a8.9511,8.9511,0,0,1-1.7666-.4941,6.8418,6.8418,0,0,1-1.6533-.9307,5.1894,5.1894,0,0,1-1.3106-1.4629h-.0761V100.19h-3.2305V73.0574ZM294.492,80.03a7.22,7.22,0,0,0-1.1016-2.3359,5.4017,5.4017,0,0,0-1.9-1.6348,5.7791,5.7791,0,0,0-2.7168-.6074,5.33,5.33,0,0,0-4.6357,2.3369,7.0553,7.0553,0,0,0-1.045,2.375,11.5042,11.5042,0,0,0,.0186,5.4912,6.9392,6.9392,0,0,0,1.083,2.375,5.5371,5.5371,0,0,0,1.9189,1.6524,5.9961,5.9961,0,0,0,2.8506.6269,5.525,5.525,0,0,0,2.793-.6455,5.1971,5.1971,0,0,0,1.8047-1.71,7.4538,7.4538,0,0,0,.9883-2.4317,12.9626,12.9626,0,0,0,.3037-2.8125A10.0341,10.0341,0,0,0,294.492,80.03Z"/><path class="cls-4" d="M315.9812,91.45a8.9161,8.9161,0,0,1-5.5478,1.6718,10.1081,10.1081,0,0,1-4.086-.76,8.0551,8.0551,0,0,1-2.9062-2.1289,9.0182,9.0182,0,0,1-1.7676-3.2676,15.7457,15.7457,0,0,1-.665-4.1416,11.8266,11.8266,0,0,1,.6845-4.1045,9.8256,9.8256,0,0,1,1.919-3.23,8.71,8.71,0,0,1,2.9258-2.1269,8.9288,8.9288,0,0,1,3.705-.7608,8.0607,8.0607,0,0,1,4.3506,1.083,8.6179,8.6179,0,0,1,2.7744,2.7559,10.9051,10.9051,0,0,1,1.4444,3.6475,15.6505,15.6505,0,0,1,.3222,3.7617H304.43a7.7459,7.7459,0,0,0,.3037,2.4511,5.5288,5.5288,0,0,0,1.1015,2.0518,5.4416,5.4416,0,0,0,1.9385,1.4258,6.6921,6.6921,0,0,0,2.7734.5312A5.5945,5.5945,0,0,0,313.91,89.36a4.594,4.594,0,0,0,1.7285-2.8887h3.1924A7.8552,7.8552,0,0,1,315.9812,91.45Zm-.7793-12.6163a5.545,5.545,0,0,0-1.1777-1.7666,5.6122,5.6122,0,0,0-1.7481-1.1787,5.5361,5.5361,0,0,0-2.2236-.4365,5.6272,5.6272,0,0,0-2.2607.4365,5.2243,5.2243,0,0,0-1.7286,1.1973,5.7251,5.7251,0,0,0-1.1406,1.7666A6.7152,6.7152,0,0,0,304.43,81h11.2851A6.6133,6.6133,0,0,0,315.2019,78.8337Z"/><path class="cls-4" d="M339.8826,92.6209a4.5186,4.5186,0,0,1-2.3184.5009,2.78,2.78,0,0,1-1.9951-.7031,3.06,3.06,0,0,1-.7412-2.2988,7.7267,7.7267,0,0,1-3.0967,2.2988,10.6858,10.6858,0,0,1-6.3457.3984,5.87,5.87,0,0,1-2.0713-.9492,4.5492,4.5492,0,0,1-1.3867-1.6914,5.6913,5.6913,0,0,1-.5137-2.5273,5.77,5.77,0,0,1,.57-2.7354,4.9829,4.9829,0,0,1,1.501-1.73,6.8956,6.8956,0,0,1,2.1279-1.0068q1.1984-.3412,2.4512-.5693,1.33-.2667,2.5274-.4a14.0732,14.0732,0,0,0,2.1093-.38,3.5167,3.5167,0,0,0,1.4434-.7227,1.7617,1.7617,0,0,0,.5322-1.3867,3.219,3.219,0,0,0-.3994-1.71,2.7274,2.7274,0,0,0-1.0254-.9873,4.1726,4.1726,0,0,0-1.4062-.457,10.6,10.6,0,0,0-1.5391-.1133,6.8284,6.8284,0,0,0-3.42.7793,3.3052,3.3052,0,0,0-1.4824,2.9443h-3.23a6.9665,6.9665,0,0,1,.76-3.0781,5.7561,5.7561,0,0,1,1.8243-2.0322,7.6325,7.6325,0,0,1,2.6025-1.1211,13.7206,13.7206,0,0,1,3.1348-.3428,18.3509,18.3509,0,0,1,2.6416.1905,6.89,6.89,0,0,1,2.375.7773,4.5557,4.5557,0,0,1,1.71,1.6494,5.2675,5.2675,0,0,1,.6465,2.7676V88.072a7.4616,7.4616,0,0,0,.1328,1.669q.1318.53.8926.5312a3.1968,3.1968,0,0,0,.9883-.19Zm-5.2442-10.1016a4,4,0,0,1-1.5957.665q-.9887.21-2.0713.3418-1.0824.1349-2.1845.3047a8.01,8.01,0,0,0-1.9766.5508,3.5955,3.5955,0,0,0-1.4248,1.083,3.028,3.028,0,0,0-.5508,1.919,2.6222,2.6222,0,0,0,.3233,1.35,2.683,2.683,0,0,0,.8359.8925,3.5145,3.5145,0,0,0,1.1963.4942,6.6338,6.6338,0,0,0,1.4443.1523,7.6617,7.6617,0,0,0,2.7364-.4375,5.75,5.75,0,0,0,1.8613-1.1015,4.3539,4.3539,0,0,0,1.0644-1.4444,3.6544,3.6544,0,0,0,.3418-1.4629Z"/><path class="cls-4" d="M345.9236,73.0574v3.1162H346a6.8018,6.8018,0,0,1,6.3838-3.5723,8.5308,8.5308,0,0,1,3.23.5323,5.3325,5.3325,0,0,1,2.09,1.4824,5.5056,5.5056,0,0,1,1.1211,2.2607,12.1835,12.1835,0,0,1,.3232,2.9072v12.92h-3.23V79.4031a3.908,3.908,0,0,0-1.0634-2.8877,3.9583,3.9583,0,0,0-2.9268-1.0635,6.5689,6.5689,0,0,0-2.5645.4561,4.7887,4.7887,0,0,0-1.8046,1.292,5.5543,5.5543,0,0,0-1.084,1.957,7.9693,7.9693,0,0,0-.36,2.4512V92.7039h-3.23V73.0574Z"/><path class="cls-4" d="M216.27,126.9949a10.0138,10.0138,0,0,1-3.9141.8164,13.9052,13.9052,0,0,1-5.6055-1.083,12.0011,12.0011,0,0,1-4.1982-2.9824,13.1977,13.1977,0,0,1-2.623-4.4659,16.3921,16.3921,0,0,1-.9112-5.5283,16.9744,16.9744,0,0,1,.9112-5.6435,13.5733,13.5733,0,0,1,2.623-4.5411,11.9907,11.9907,0,0,1,4.1982-3.039,13.7115,13.7115,0,0,1,5.6055-1.1026,13.1906,13.1906,0,0,1,4.0469.627,11.4735,11.4735,0,0,1,3.5342,1.8428,9.9643,9.9643,0,0,1,3.8564,7.1064h-5.7a5.7082,5.7082,0,0,0-2.0517-3.42,5.96,5.96,0,0,0-3.6856-1.14,6.97,6.97,0,0,0-3.42.7784,6.4523,6.4523,0,0,0-2.28,2.09,9.1709,9.1709,0,0,0-1.2734,2.9834,14.8733,14.8733,0,0,0-.3985,3.458,13.832,13.832,0,0,0,.3985,3.3252,8.9841,8.9841,0,0,0,1.2734,2.9063,6.503,6.503,0,0,0,2.28,2.0713,6.96,6.96,0,0,0,3.42.7792,5.8214,5.8214,0,0,0,6.46-5.8525h-6.0039v-4.4453h11.3994v14.668h-3.8l-.6074-3.0782A8.9464,8.9464,0,0,1,216.27,126.9949Z"/><path class="cls-4" d="M242.7556,125.95a8.9161,8.9161,0,0,1-5.5478,1.6718,10.1031,10.1031,0,0,1-4.085-.76,8.05,8.05,0,0,1-2.9072-2.1289,9.018,9.018,0,0,1-1.7666-3.2676,15.7082,15.7082,0,0,1-.666-4.1416,11.8266,11.8266,0,0,1,.6845-4.1045,9.8256,9.8256,0,0,1,1.919-3.23,8.72,8.72,0,0,1,2.9258-2.1269,8.9288,8.9288,0,0,1,3.705-.7608,8.0667,8.0667,0,0,1,4.3516,1.083,8.6147,8.6147,0,0,1,2.7734,2.7559,10.8841,10.8841,0,0,1,1.4444,3.6475,15.7043,15.7043,0,0,1,.3232,3.7617h-14.706a7.7487,7.7487,0,0,0,.3037,2.4511,5.5432,5.5432,0,0,0,1.1015,2.0518,5.4416,5.4416,0,0,0,1.9385,1.4258,6.6937,6.6937,0,0,0,2.7744.5312,5.5934,5.5934,0,0,0,3.3623-.9492,4.5989,4.5989,0,0,0,1.73-2.8887h3.1914A7.8552,7.8552,0,0,1,242.7556,125.95Zm-.7793-12.6163a5.5122,5.5122,0,0,0-1.1777-1.7666,5.611,5.611,0,0,0-1.7481-1.1787,5.5313,5.5313,0,0,0-2.2226-.4365,5.6352,5.6352,0,0,0-2.2617.4365,5.2228,5.2228,0,0,0-1.7285,1.1973,5.7418,5.7418,0,0,0-1.1407,1.7666,6.7152,6.7152,0,0,0-.4931,2.1475H242.49A6.64,6.64,0,0,0,241.9763,113.3337Z"/><path class="cls-4" d="M252.2927,107.5574v3.1162h.0762a6.8019,6.8019,0,0,1,6.3838-3.5723,8.5313,8.5313,0,0,1,3.2305.5323,5.3322,5.3322,0,0,1,2.09,1.4824,5.5044,5.5044,0,0,1,1.1211,2.2607,12.1835,12.1835,0,0,1,.3232,2.9072v12.92h-3.23V113.9031a3.908,3.908,0,0,0-1.0635-2.8877,3.9581,3.9581,0,0,0-2.9268-1.0635,6.5683,6.5683,0,0,0-2.5644.4561,4.789,4.789,0,0,0-1.8047,1.292,5.5559,5.5559,0,0,0-1.084,1.957,7.9723,7.9723,0,0,0-.36,2.4512v11.0957h-3.2305V107.5574Z"/><path class="cls-4" d="M269.9255,113.3523a9.1534,9.1534,0,0,1,1.8233-3.2676,8.5948,8.5948,0,0,1,3.0019-2.1855,11.0038,11.0038,0,0,1,8.2276,0,8.6369,8.6369,0,0,1,2.9824,2.1855,9.17,9.17,0,0,1,1.8242,3.2676,13.0873,13.0873,0,0,1,.6084,4.0469,12.9061,12.9061,0,0,1-.6084,4.0283,9.189,9.189,0,0,1-1.8242,3.249,8.4178,8.4178,0,0,1-2.9824,2.166,11.2476,11.2476,0,0,1-8.2276,0,8.38,8.38,0,0,1-3.0019-2.166,9.1717,9.1717,0,0,1-1.8233-3.249,12.88,12.88,0,0,1-.6084-4.0283A13.0605,13.0605,0,0,1,269.9255,113.3523Zm3.2862,7.2207a6.6376,6.6376,0,0,0,1.3115,2.3174,5.6538,5.6538,0,0,0,1.957,1.4248,5.955,5.955,0,0,0,4.75,0,5.6822,5.6822,0,0,0,1.9571-1.4248,6.636,6.636,0,0,0,1.31-2.3174,10.8464,10.8464,0,0,0,0-6.3467,6.8666,6.8666,0,0,0-1.31-2.3369,5.6,5.6,0,0,0-1.9571-1.4433,5.9539,5.9539,0,0,0-4.75,0,5.572,5.572,0,0,0-1.957,1.4433,6.8683,6.8683,0,0,0-1.3115,2.3369,10.8464,10.8464,0,0,0,0,6.3467Z"/><path class="cls-4" d="M295.2322,107.5574v2.8887h.0762a7.6537,7.6537,0,0,1,9.6523-2.584,4.2533,4.2533,0,0,1,2.09,2.584,6.8472,6.8472,0,0,1,2.6036-2.4707,7.3479,7.3479,0,0,1,3.5527-.8741,10.2979,10.2979,0,0,1,2.6787.3233,5.5654,5.5654,0,0,1,2.0518,1.0068,4.5575,4.5575,0,0,1,1.33,1.7676,6.4577,6.4577,0,0,1,.4747,2.6025v14.4024h-3.23V114.3211a9.1874,9.1874,0,0,0-.1514-1.709,3.5079,3.5079,0,0,0-.57-1.3877,2.8532,2.8532,0,0,0-1.1592-.9307,4.6,4.6,0,0,0-1.9189-.3418,5.087,5.087,0,0,0-3.7618,1.3672,4.9319,4.9319,0,0,0-1.3681,3.6484v12.2364h-3.2305V114.3211a8.3244,8.3244,0,0,0-.1709-1.7471,3.7256,3.7256,0,0,0-.5889-1.3877,2.7592,2.7592,0,0,0-1.1211-.9121,4.35,4.35,0,0,0-1.8046-.3223,4.8136,4.8136,0,0,0-2.4131.57,5.4532,5.4532,0,0,0-2.5459,3.02,4.6714,4.6714,0,0,0-.2852,1.4248v12.2364h-3.2305V107.5574Z"/><path class="cls-4" d="M338.5144,125.95a8.9161,8.9161,0,0,1-5.5478,1.6718,10.1028,10.1028,0,0,1-4.085-.76,8.05,8.05,0,0,1-2.9072-2.1289,9.0333,9.0333,0,0,1-1.7676-3.2676,15.7091,15.7091,0,0,1-.6641-4.1416,11.8267,11.8267,0,0,1,.6836-4.1045,9.8256,9.8256,0,0,1,1.919-3.23,8.72,8.72,0,0,1,2.9258-2.1269,8.9288,8.9288,0,0,1,3.705-.7608,8.0607,8.0607,0,0,1,4.3506,1.083,8.6,8.6,0,0,1,2.7744,2.7559,10.8862,10.8862,0,0,1,1.4444,3.6475,15.6505,15.6505,0,0,1,.3222,3.7617h-14.705a7.8038,7.8038,0,0,0,.3037,2.4511,5.5165,5.5165,0,0,0,1.1025,2.0518,5.4377,5.4377,0,0,0,1.9375,1.4258,6.6921,6.6921,0,0,0,2.7734.5312,5.5945,5.5945,0,0,0,3.3633-.9492,4.5993,4.5993,0,0,0,1.7295-2.8887h3.1914A7.8552,7.8552,0,0,1,338.5144,125.95Zm-.7793-12.6163a5.5122,5.5122,0,0,0-1.1777-1.7666,5.6122,5.6122,0,0,0-1.7481-1.1787,5.5343,5.5343,0,0,0-2.2226-.4365,5.6287,5.6287,0,0,0-2.2617.4365,5.2243,5.2243,0,0,0-1.7286,1.1973,5.7224,5.7224,0,0,0-1.14,1.7666,6.69,6.69,0,0,0-.4941,2.1475h11.2851A6.6133,6.6133,0,0,0,337.7351,113.3337Z"/><path class="cls-4" d="M355.4617,115.12v3.04H344.48v-3.04Z"/><path class="cls-4" d="M363.1375,107.5574v2.66h.0761a4.8411,4.8411,0,0,1,2.5078-2.375,9.3586,9.3586,0,0,1,3.7627-.7412,8.8713,8.8713,0,0,1,3.9707.836,8.0789,8.0789,0,0,1,2.8116,2.2617,10,10,0,0,1,1.6914,3.2861,13.4418,13.4418,0,0,1,.5693,3.9522,13.8584,13.8584,0,0,1-.5508,3.9521,9.3012,9.3012,0,0,1-1.6718,3.249,7.8841,7.8841,0,0,1-2.8116,2.1856,9.1229,9.1229,0,0,1-3.9336.7978,9.6678,9.6678,0,0,1-1.6142-.1523,8.9413,8.9413,0,0,1-1.7676-.4941,6.8358,6.8358,0,0,1-1.6523-.9307,5.1927,5.1927,0,0,1-1.3116-1.4629h-.0761V134.69H359.908V107.5574Zm11.6093,6.9726a7.24,7.24,0,0,0-1.1025-2.3359,5.4071,5.4071,0,0,0-1.8994-1.6348,5.7861,5.7861,0,0,0-2.7178-.6074,5.33,5.33,0,0,0-4.6357,2.3369,7.0553,7.0553,0,0,0-1.045,2.375,11.5042,11.5042,0,0,0,.0186,5.4912,6.9221,6.9221,0,0,0,1.084,2.375,5.5281,5.5281,0,0,0,1.9189,1.6524,5.9891,5.9891,0,0,0,2.85.6269,5.5227,5.5227,0,0,0,2.793-.6455,5.2089,5.2089,0,0,0,1.8057-1.71,7.47,7.47,0,0,0,.9873-2.4317,12.9626,12.9626,0,0,0,.3037-2.8125A10.07,10.07,0,0,0,374.7468,114.53Z"/><path class="cls-4" d="M385.5574,100.0711v10.375h.0752a4.3023,4.3023,0,0,1,1.0644-1.5391,6.061,6.061,0,0,1,1.5391-1.0264,7.9625,7.9625,0,0,1,1.7861-.5888,8.9873,8.9873,0,0,1,1.8047-.1905,8.5345,8.5345,0,0,1,3.23.5323,5.3322,5.3322,0,0,1,2.09,1.4824,5.5031,5.5031,0,0,1,1.1211,2.2607,12.1782,12.1782,0,0,1,.3233,2.9072v12.92h-3.2305V113.9031a3.9046,3.9046,0,0,0-1.0645-2.8877,3.9539,3.9539,0,0,0-2.9257-1.0635,6.5654,6.5654,0,0,0-2.5645.4561,4.8013,4.8013,0,0,0-1.8057,1.292,5.5554,5.5554,0,0,0-1.083,1.957,7.9723,7.9723,0,0,0-.36,2.4512v11.0957h-3.23V100.0711Z"/><path class="cls-4" d="M417.363,125.95a8.9161,8.9161,0,0,1-5.5478,1.6718,10.1031,10.1031,0,0,1-4.085-.76,8.0511,8.0511,0,0,1-2.9072-2.1289,9.018,9.018,0,0,1-1.7666-3.2676,15.7123,15.7123,0,0,1-.666-4.1416,11.8243,11.8243,0,0,1,.6846-4.1045,9.8254,9.8254,0,0,1,1.9189-3.23,8.72,8.72,0,0,1,2.9258-2.1269,8.9289,8.9289,0,0,1,3.7051-.7608,8.0666,8.0666,0,0,1,4.3515,1.083A8.616,8.616,0,0,1,418.75,110.94a10.886,10.886,0,0,1,1.4443,3.6475,15.7043,15.7043,0,0,1,.3232,3.7617h-14.706a7.7487,7.7487,0,0,0,.3037,2.4511,5.542,5.542,0,0,0,1.1016,2.0518,5.44,5.44,0,0,0,1.9384,1.4258,6.6939,6.6939,0,0,0,2.7745.5312,5.5938,5.5938,0,0,0,3.3623-.9492,4.5993,4.5993,0,0,0,1.7295-2.8887h3.1914A7.8558,7.8558,0,0,1,417.363,125.95Zm-.7792-12.6163a5.5124,5.5124,0,0,0-1.1778-1.7666,5.6106,5.6106,0,0,0-1.748-1.1787,5.5317,5.5317,0,0,0-2.2227-.4365,5.6355,5.6355,0,0,0-2.2617.4365,5.2228,5.2228,0,0,0-1.7285,1.1973,5.7415,5.7415,0,0,0-1.1406,1.7666,6.7126,6.7126,0,0,0-.4932,2.1475h11.2861A6.6371,6.6371,0,0,0,416.5838,113.3337Z"/><path class="cls-4" d="M426.9,107.5574v3.1162h.0761a6.8019,6.8019,0,0,1,6.3838-3.5723,8.531,8.531,0,0,1,3.2305.5323,5.3322,5.3322,0,0,1,2.09,1.4824,5.5031,5.5031,0,0,1,1.1211,2.2607,12.1782,12.1782,0,0,1,.3233,2.9072v12.92h-3.2305V113.9031a3.908,3.908,0,0,0-1.0635-2.8877,3.9579,3.9579,0,0,0-2.9267-1.0635,6.5689,6.5689,0,0,0-2.5645.4561,4.79,4.79,0,0,0-1.8047,1.292,5.5559,5.5559,0,0,0-1.084,1.957,7.9723,7.9723,0,0,0-.36,2.4512v11.0957H423.86V107.5574Z"/><path class="cls-4" d="M444.533,113.3523a9.1547,9.1547,0,0,1,1.8232-3.2676,8.5952,8.5952,0,0,1,3.002-2.1855,11.0036,11.0036,0,0,1,8.2275,0,8.6369,8.6369,0,0,1,2.9824,2.1855,9.1689,9.1689,0,0,1,1.8242,3.2676,13.0873,13.0873,0,0,1,.6084,4.0469,12.9061,12.9061,0,0,1-.6084,4.0283,9.1874,9.1874,0,0,1-1.8242,3.249,8.4178,8.4178,0,0,1-2.9824,2.166,11.2474,11.2474,0,0,1-8.2275,0,8.38,8.38,0,0,1-3.002-2.166,9.1731,9.1731,0,0,1-1.8232-3.249,12.877,12.877,0,0,1-.6084-4.0283A13.0576,13.0576,0,0,1,444.533,113.3523Zm3.2861,7.2207a6.6376,6.6376,0,0,0,1.3115,2.3174,5.6542,5.6542,0,0,0,1.9571,1.4248,5.955,5.955,0,0,0,4.75,0,5.6808,5.6808,0,0,0,1.957-1.4248,6.636,6.636,0,0,0,1.3105-2.3174,10.8464,10.8464,0,0,0,0-6.3467,6.8666,6.8666,0,0,0-1.3105-2.3369,5.5982,5.5982,0,0,0-1.957-1.4433,5.9539,5.9539,0,0,0-4.75,0,5.5723,5.5723,0,0,0-1.9571,1.4433,6.8683,6.8683,0,0,0-1.3115,2.3369,10.8464,10.8464,0,0,0,0,6.3467Z"/><path class="cls-4" d="M469.84,107.5574v2.8887h.0762a7.6537,7.6537,0,0,1,9.6523-2.584,4.2537,4.2537,0,0,1,2.09,2.584,6.8469,6.8469,0,0,1,2.6035-2.4707,7.3481,7.3481,0,0,1,3.5527-.8741,10.2979,10.2979,0,0,1,2.6787.3233,5.5654,5.5654,0,0,1,2.0518,1.0068,4.5577,4.5577,0,0,1,1.33,1.7676,6.46,6.46,0,0,1,.4746,2.6025v14.4024h-3.23V114.3211a9.1874,9.1874,0,0,0-.1514-1.709,3.5064,3.5064,0,0,0-.57-1.3877,2.8526,2.8526,0,0,0-1.1592-.9307,4.6,4.6,0,0,0-1.9189-.3418,5.0868,5.0868,0,0,0-3.7617,1.3672,4.932,4.932,0,0,0-1.3682,3.6484v12.2364H478.96V114.3211a8.3244,8.3244,0,0,0-.1709-1.7471,3.7255,3.7255,0,0,0-.5888-1.3877,2.76,2.76,0,0,0-1.1211-.9121,4.3509,4.3509,0,0,0-1.8047-.3223,4.8136,4.8136,0,0,0-2.4131.57,5.4532,5.4532,0,0,0-2.5459,3.02,4.6745,4.6745,0,0,0-.2852,1.4248v12.2364H466.8V107.5574Z"/><path class="cls-4" d="M513.1218,125.95a8.9161,8.9161,0,0,1-5.5478,1.6718,10.1031,10.1031,0,0,1-4.085-.76,8.0511,8.0511,0,0,1-2.9072-2.1289,9.0333,9.0333,0,0,1-1.7676-3.2676,15.7092,15.7092,0,0,1-.664-4.1416,11.8243,11.8243,0,0,1,.6836-4.1045,9.8254,9.8254,0,0,1,1.9189-3.23,8.72,8.72,0,0,1,2.9258-2.1269,8.9289,8.9289,0,0,1,3.7051-.7608,8.0606,8.0606,0,0,1,4.3505,1.083,8.5994,8.5994,0,0,1,2.7745,2.7559,10.886,10.886,0,0,1,1.4443,3.6475,15.6559,15.6559,0,0,1,.3223,3.7617H501.57a7.8067,7.8067,0,0,0,.3037,2.4511,5.5165,5.5165,0,0,0,1.1025,2.0518,5.4377,5.4377,0,0,0,1.9375,1.4258,6.6923,6.6923,0,0,0,2.7735.5312,5.5944,5.5944,0,0,0,3.3632-.9492,4.5989,4.5989,0,0,0,1.7295-2.8887h3.1914A7.8552,7.8552,0,0,1,513.1218,125.95Zm-.7793-12.6163a5.5122,5.5122,0,0,0-1.1777-1.7666,5.6106,5.6106,0,0,0-1.748-1.1787,5.5352,5.5352,0,0,0-2.2227-.4365,5.6287,5.6287,0,0,0-2.2617.4365,5.2228,5.2228,0,0,0-1.7285,1.1973,5.7209,5.7209,0,0,0-1.14,1.7666A6.69,6.69,0,0,0,501.57,115.5h11.2851A6.6083,6.6083,0,0,0,512.3425,113.3337Z"/><path class="cls-4" d="M213.7244,134.5711,223.87,161.7039h-6.1944l-2.0517-6.042H205.4783l-2.1289,6.042h-6.0039l10.2607-27.1328Zm.3418,16.6445-3.42-9.9561H210.57l-3.5342,9.9561Z"/><path class="cls-4" d="M228.9617,142.0574V146.2h.0762a8.7447,8.7447,0,0,1,2.8876-3.5342,7.2611,7.2611,0,0,1,4.3321-1.0645v3.4209a9.1385,9.1385,0,0,0-3.3057.5313,5.21,5.21,0,0,0-2.2041,1.5586A6.4345,6.4345,0,0,0,229.532,149.6a13.4086,13.4086,0,0,0-.38,3.3632v8.74h-3.23V142.0574Z"/><path class="cls-4" d="M249.7478,145.4773a4.9047,4.9047,0,0,0-3.2676-1.0254,6.0172,6.0172,0,0,0-2.9257.6455,5.2049,5.2049,0,0,0-1.8809,1.71,7.1956,7.1956,0,0,0-1.0078,2.4512,13.3353,13.3353,0,0,0-.3037,2.8691,10.9045,10.9045,0,0,0,.3232,2.66,7.1151,7.1151,0,0,0,1.0068,2.2988,5.092,5.092,0,0,0,1.7862,1.6152,5.3455,5.3455,0,0,0,2.6211.6074,5.2892,5.2892,0,0,0,3.7441-1.2539,5.6677,5.6677,0,0,0,1.6524-3.5332h3.3066a9.0461,9.0461,0,0,1-2.7178,5.6231,8.53,8.53,0,0,1-5.9463,1.9765,10.2285,10.2285,0,0,1-3.9716-.7226,7.671,7.671,0,0,1-2.8877-2.0518,8.8538,8.8538,0,0,1-1.7481-3.1728,13.2364,13.2364,0,0,1-.5889-4.0469,14.4581,14.4581,0,0,1,.5694-4.1231,9.5456,9.5456,0,0,1,1.73-3.3437,8.1085,8.1085,0,0,1,2.9072-2.2422,9.5036,9.5036,0,0,1,4.0654-.8174,11.9,11.9,0,0,1,3.1358.3994,7.6551,7.6551,0,0,1,2.584,1.2344,6.7751,6.7751,0,0,1,1.8427,2.1094,7.8081,7.8081,0,0,1,.9121,3.0215h-3.3447A4.9247,4.9247,0,0,0,249.7478,145.4773Z"/><path class="cls-4" d="M261.6414,134.5711v10.375h.0761a4.3,4.3,0,0,1,1.0635-1.5391,6.0928,6.0928,0,0,1,1.5391-1.0264,7.9625,7.9625,0,0,1,1.7861-.5888,8.9969,8.9969,0,0,1,1.8057-.19,8.5259,8.5259,0,0,1,3.2295.5323,5.3249,5.3249,0,0,1,2.09,1.4824,5.5044,5.5044,0,0,1,1.1211,2.2607,12.1835,12.1835,0,0,1,.3232,2.9072v12.92h-3.23V148.4031a3.9041,3.9041,0,0,0-1.0635-2.8877,3.9559,3.9559,0,0,0-2.9258-1.0635,6.5732,6.5732,0,0,0-2.5654.4561,4.7969,4.7969,0,0,0-1.8047,1.292,5.5538,5.5538,0,0,0-1.083,1.957,7.942,7.942,0,0,0-.3613,2.4512v11.0957h-3.2295V134.5711Z"/><path class="cls-4" d="M279.7293,138.5242v-3.9531h3.23v3.9531Zm3.23,3.5332v19.6465h-3.23V142.0574Z"/><path class="cls-4" d="M293.3709,161.7039l-7.2959-19.6465h3.61l5.51,16.3779h.0762l5.3574-16.3779h3.3818l-7.1816,19.6465Z"/><path class="cls-4" d="M320.8826,160.45a8.9144,8.9144,0,0,1-5.5479,1.6718,10.1023,10.1023,0,0,1-4.0849-.76,8.0506,8.0506,0,0,1-2.9073-2.1289,9.033,9.033,0,0,1-1.7666-3.2676,15.6719,15.6719,0,0,1-.665-4.1416,11.8243,11.8243,0,0,1,.6836-4.1045,9.8254,9.8254,0,0,1,1.9189-3.2305,8.7219,8.7219,0,0,1,2.9258-2.1269,8.9293,8.9293,0,0,1,3.7051-.7608,8.0672,8.0672,0,0,1,4.3516,1.083,8.6068,8.6068,0,0,1,2.7734,2.7559,10.863,10.863,0,0,1,1.4443,3.6475,15.6028,15.6028,0,0,1,.3233,3.7617H309.3308a7.8067,7.8067,0,0,0,.3037,2.4511,5.544,5.544,0,0,0,1.1026,2.0518,5.436,5.436,0,0,0,1.9375,1.4258,6.6931,6.6931,0,0,0,2.7744.5312,5.5987,5.5987,0,0,0,3.3633-.9492,4.6025,4.6025,0,0,0,1.7285-2.8887h3.1914A7.8561,7.8561,0,0,1,320.8826,160.45Zm-.7793-12.6163a5.5108,5.5108,0,0,0-1.1778-1.7666,5.6106,5.6106,0,0,0-1.748-1.1787,5.5317,5.5317,0,0,0-2.2227-.4365,5.6355,5.6355,0,0,0-2.2617.4365,5.2238,5.2238,0,0,0-1.7285,1.1973,5.7224,5.7224,0,0,0-1.14,1.7666A6.69,6.69,0,0,0,309.3308,150H320.617A6.6145,6.6145,0,0,0,320.1033,147.8337Z"/></svg>